<svg xmlns="http://www.w3.org/2000/svg" viewBox="0 0 64 64" width="64" height="64">
  <!-- Molty the Lobster - OpenClaw MasterClass Logo -->
  <!-- Body -->
  <ellipse cx="32" cy="36" rx="10" ry="14" fill="#E74C3C"/>
  <!-- Head -->
  <circle cx="32" cy="20" r="8" fill="#E74C3C"/>
  <!-- Eyes -->
  <circle cx="29" cy="18" r="2" fill="#FFFFFF"/>
  <circle cx="35" cy="18" r="2" fill="#FFFFFF"/>
  <circle cx="29.5" cy="18" r="1" fill="#2C3E50"/>
  <circle cx="35.5" cy="18" r="1" fill="#2C3E50"/>
  <!-- Antennae -->
  <line x1="28" y1="13" x2="22" y2="5" stroke="#E74C3C" stroke-width="2" stroke-linecap="round"/>
  <line x1="36" y1="13" x2="42" y2="5" stroke="#E74C3C" stroke-width="2" stroke-linecap="round"/>
  <!-- Left Claw -->
  <path d="M22 30 Q14 24 10 28 Q7 31 10 34 Q13 37 16 33 L22 30Z" fill="#E74C3C"/>
  <path d="M10 28 Q7 25 4 27 Q2 30 5 32 L10 34" fill="#C0392B"/>
  <!-- Right Claw -->
  <path d="M42 30 Q50 24 54 28 Q57 31 54 34 Q51 37 48 33 L42 30Z" fill="#E74C3C"/>
  <path d="M54 28 Q57 25 60 27 Q62 30 59 32 L54 34" fill="#C0392B"/>
  <!-- Arms to claws -->
  <path d="M24 32 L22 30" stroke="#C0392B" stroke-width="3" stroke-linecap="round"/>
  <path d="M40 32 L42 30" stroke="#C0392B" stroke-width="3" stroke-linecap="round"/>
  <!-- Tail segments -->
  <ellipse cx="32" cy="50" rx="8" ry="3" fill="#C0392B"/>
  <ellipse cx="32" cy="54" rx="6" ry="2.5" fill="#C0392B"/>
  <ellipse cx="32" cy="57" rx="4" ry="2" fill="#C0392B"/>
  <!-- Tail fan -->
  <path d="M28 59 Q26 63 29 63 L32 60 L35 63 Q38 63 36 59 Z" fill="#E74C3C"/>
  <!-- Body highlight -->
  <ellipse cx="32" cy="34" rx="5" ry="8" fill="#E85D4F" opacity="0.5"/>
  <!-- Smile -->
  <path d="M29 22 Q32 25 35 22" stroke="#2C3E50" stroke-width="1.2" fill="none" stroke-linecap="round"/>
</svg>